<svg id="Group_940" data-name="Group 940" xmlns="http://www.w3.org/2000/svg" width="30" height="30.105" viewBox="0 0 30 30.105">
  <path id="Path_248" data-name="Path 248" d="M296.059,573.459c-.006.739.064,1.4-.664,1.4s-.618-.687-.658-1.2a13.137,13.137,0,0,0-10.381-12.16c-.8-.182-1.638-.15-2.451-.265-.43-.061-.941-.211-.855-.776.075-.491.519-.656,1-.629A14.563,14.563,0,0,1,295.8,571.615C295.935,572.293,295.994,572.986,296.059,573.459Z" transform="translate(-270.215 -555.574)" fill="#a4d166"/>
  <path id="Path_249" data-name="Path 249" d="M296.519,592.413c-.1.432.3,1.223-.609,1.248-.74.02-.662-.644-.706-1.161a8.111,8.111,0,0,0-7.468-7.44c-.507-.057-1.181.055-1.125-.719.054-.758.733-.6,1.228-.59A9.537,9.537,0,0,1,296.519,592.413Z" transform="translate(-274.239 -575.923)" fill="#a4d166"/>
  <path id="Path_250" data-name="Path 250" d="M218.456,556.294a13.024,13.024,0,0,1-9.432-3.312c-3.678-3.181-7.443-6.3-10.461-10.123-3.056-3.872-4.05-8.288-2.21-13.055a5.564,5.564,0,0,1,4.332-3.552,1.723,1.723,0,0,1,2.236,1.261c.624,1.885,1.207,3.783,1.792,5.68a2.172,2.172,0,0,1-.632,2.405c-.513.476-1.012.969-1.481,1.488a2.771,2.771,0,0,0-.482,3.271,26.107,26.107,0,0,0,9.148,9.089,2.876,2.876,0,0,0,3.813-.523c2.164-2.09,1.96-2.75,5.584-1,1.191.577,2.424,1.067,3.625,1.626,1.244.579,1.409,1.007.791,2.244A7.577,7.577,0,0,1,218.456,556.294Z" transform="translate(-195.429 -526.189)" fill="#a4d166"/>
</svg>
