<svg id="Group_262" data-name="Group 262" xmlns="http://www.w3.org/2000/svg" width="22.263" height="17.477" viewBox="0 0 22.263 17.477">
  <path id="Path_206" data-name="Path 206" d="M871.485,449.508a.136.136,0,0,0,.033-.089A.837.837,0,0,1,871.485,449.508Z" transform="translate(-854.448 -442.155)" fill="none"/>
  <path id="Path_207" data-name="Path 207" d="M870.01,446.565a.245.245,0,0,0,.036-.068C870.034,446.519,870.023,446.542,870.01,446.565Z" transform="translate(-853.172 -439.626)" fill="none"/>
  <path id="Path_208" data-name="Path 208" d="M783.528,449.332a.8.8,0,0,1-.033-.089A.136.136,0,0,0,783.528,449.332Z" transform="translate(-778.302 -442.002)" fill="none"/>
  <path id="Path_209" data-name="Path 209" d="M784.984,446.388c-.013-.022-.024-.045-.036-.068A.24.24,0,0,0,784.984,446.388Z" transform="translate(-779.56 -439.473)" fill="none"/>
  <path id="Path_210" data-name="Path 210" d="M852.4,411.536a37.122,37.122,0,0,1,2.294-3.825,3.969,3.969,0,0,0,.663-1.089v-1.29a7.627,7.627,0,0,0-.679-1.426,14.622,14.622,0,0,1-1-2.929,3.736,3.736,0,0,0-1.291-2.1,11.8,11.8,0,0,1-1.434-1.385c-.484-.5-.948-1.026-1.409-1.55a.339.339,0,0,0-.3-.113,4.822,4.822,0,0,0-.6-.123c-.229,0-.308.129-.413.129h0a1.893,1.893,0,0,0,.141,1.024,2.635,2.635,0,0,0,1.376,1.5c.072.025.065.048.034.083-.1.111,0,.181.044.268a7.593,7.593,0,0,0,1.012,1.465.331.331,0,0,0,.46.1,1.219,1.219,0,0,1,1.048-.011,1.518,1.518,0,0,1,.834,1.467,9.337,9.337,0,0,1-.236,2.208,6.648,6.648,0,0,1-.134.961c-.18.547-.238,1.169-.389,1.716a12.991,12.991,0,0,1-.3,1.806,5.157,5.157,0,0,0-.3,1.238c-.011.074-.007.185-.118.163s-.084-.115-.062-.2a21.28,21.28,0,0,0,.476-2.546c.171-1.143.524-2.252.7-3.4a10.452,10.452,0,0,0,.158-2.084c0-.049.029-.128-.045-.139s-.079.066-.086.119a2.446,2.446,0,0,1-.216.633c-.108.256-.271.473-.566.461-.373-.016-.779.032-1.062-.311-.055-.066-.044-.148-.062-.223a5.641,5.641,0,0,1-.079-.8.578.578,0,0,1,.311-.616,1.387,1.387,0,0,1,1.35-.015c.053.025.095.145.151.071.044-.057-.04-.139-.1-.19a1.164,1.164,0,0,0-1.515.047,2.887,2.887,0,0,0-.8,1.569c-.056.242-.025.5-.1.732a.136.136,0,0,1-.033.089,8.579,8.579,0,0,1-.175,2.217,4.409,4.409,0,0,1-1.2,1.841,4.95,4.95,0,0,0-1.09,1.329,9.045,9.045,0,0,0-.554,1.933,11.943,11.943,0,0,0-.3,2.2,4.921,4.921,0,0,0,.023.6h5.027A3.849,3.849,0,0,1,852.4,411.536Z" transform="translate(-833.099 -395.671)" fill="#2f68a4"/>
  <path id="Path_211" data-name="Path 211" d="M851.176,403.033a2.887,2.887,0,0,1,.8-1.569,1.164,1.164,0,0,1,1.515-.047c.061.051.145.132.1.19-.056.074-.1-.046-.151-.071a1.387,1.387,0,0,0-1.35.015.577.577,0,0,0-.311.616,5.64,5.64,0,0,0,.079.8c.018.076.007.157.062.223.283.343.689.3,1.062.311.294.012.457-.205.566-.461a2.443,2.443,0,0,0,.216-.633c.007-.054.014-.13.086-.119s.042.09.045.139a10.447,10.447,0,0,1-.158,2.084c-.171,1.146-.524,2.255-.7,3.4a21.292,21.292,0,0,1-.476,2.546c-.022.081-.037.177.062.2s.107-.089.118-.163a5.151,5.151,0,0,1,.3-1.238,13.01,13.01,0,0,0,.3-1.806c.151-.547.209-1.169.389-1.716a6.656,6.656,0,0,0,.134-.961,9.34,9.34,0,0,0,.236-2.208,1.518,1.518,0,0,0-.834-1.467,1.218,1.218,0,0,0-1.048.011.331.331,0,0,1-.46-.1,7.593,7.593,0,0,1-1.012-1.465c-.045-.087-.142-.157-.044-.268.031-.035.038-.058-.034-.083a2.635,2.635,0,0,1-1.376-1.5,1.893,1.893,0,0,1-.141-1.024h-.215a2.769,2.769,0,0,0,.5,1.644c.369.575.991.919,1.277,1.563a5.66,5.66,0,0,0,.975,1.33c.06.07.136.134.045.229-.046.048-.1.123-.151.123-.1,0-.064-.122-.1-.183a1.069,1.069,0,0,1-.1-.212c-.242-.631-.835-.96-1.255-1.436a3.23,3.23,0,0,0-.649-.723,4.553,4.553,0,0,1-1-.8c-.182-.2-.367-.393-.551-.589.065.159-.151.316,0,.476h0c.047-.191.128-.119.193-.018a1.752,1.752,0,0,0,.488.513,19.749,19.749,0,0,1,2.2,2.078,1.392,1.392,0,0,1,.352.452,1.139,1.139,0,0,1,.155.963.5.5,0,0,1-.079.1c-.028-.03-.072-.056-.083-.092a6.771,6.771,0,0,0-1.317-1.907,7.6,7.6,0,0,0-1.5-1.347c.023.251-.077.511.059.753h0c.035-.124-.071-.307.071-.367.117-.05.189.129.287.2a5.164,5.164,0,0,1,1.154,1.16,4.661,4.661,0,0,1,1.146,1.79,1.473,1.473,0,0,1-.167,1.011.246.246,0,0,1-.036.068c.055.143.233.228.2.414a.834.834,0,0,0,.033-.089C851.15,403.528,851.12,403.275,851.176,403.033Zm.754-.674c-.006-.559.08-.71.518-.79a2.121,2.121,0,0,1,.673-.012.6.6,0,0,1,.505.769c-.028.132-.048.266-.089.394-.143.456-.387.678-.71.657-.583-.038-.823-.226-.9-.713A2.083,2.083,0,0,1,851.93,402.36Z" transform="translate(-834.007 -396.501)" fill="#79c9e7"/>
  <path id="Path_212" data-name="Path 212" d="M848.335,398.1a3.23,3.23,0,0,1,.649.723c.421.476,1.013.805,1.255,1.436a1.068,1.068,0,0,0,.1.212c.041.061,0,.183.1.183.051,0,.105-.075.151-.123.091-.095.015-.159-.045-.229a5.658,5.658,0,0,1-.975-1.33c-.286-.644-.908-.988-1.277-1.563a2.769,2.769,0,0,1-.5-1.644h0c-.258,0-.488-.139-.746-.139-.453,0-.606.328-.423.751.049.112.1.222.157.333.184.2.369.391.551.589A4.558,4.558,0,0,0,848.335,398.1Z" transform="translate(-832.872 -395.603)" fill="#2f68a4"/>
  <path id="Path_213" data-name="Path 213" d="M854.4,418.691a4.662,4.662,0,0,0-1.146-1.791,5.162,5.162,0,0,0-1.154-1.16c-.1-.069-.17-.248-.287-.2-.142.06-.035.243-.071.367h0a1.8,1.8,0,0,0,.583,1.074,9.652,9.652,0,0,1,1.871,2.787c.013-.023.024-.045.036-.068A1.473,1.473,0,0,0,854.4,418.691Z" transform="translate(-837.355 -412.831)" fill="#2f68a4"/>
  <path id="Path_214" data-name="Path 214" d="M850.167,408.54a6.774,6.774,0,0,1,1.317,1.907c.011.036.054.062.083.092a.5.5,0,0,0,.079-.1,1.138,1.138,0,0,0-.155-.963,1.392,1.392,0,0,0-.352-.452,19.74,19.74,0,0,0-2.2-2.078,1.75,1.75,0,0,1-.488-.513c-.065-.1-.146-.173-.193.018h0a1.833,1.833,0,0,0,.414.742A7.6,7.6,0,0,1,850.167,408.54Z" transform="translate(-834.345 -404.867)" fill="#2f68a4"/>
  <path id="Path_215" data-name="Path 215" d="M878.933,434.7c.323.021.567-.2.71-.657.04-.128.061-.262.088-.394a.6.6,0,0,0-.505-.769,2.121,2.121,0,0,0-.673.012c-.437.08-.524.231-.518.79a2.074,2.074,0,0,0,0,.3C878.11,434.472,878.35,434.661,878.933,434.7Z" transform="translate(-860.112 -427.822)" fill="#2f68a4"/>
  <path id="Path_216" data-name="Path 216" d="M753.461,412.371a11.948,11.948,0,0,0-.3-2.2,9.046,9.046,0,0,0-.554-1.934,4.953,4.953,0,0,0-1.09-1.329,4.409,4.409,0,0,1-1.2-1.841,8.574,8.574,0,0,1-.175-2.217.136.136,0,0,1-.033-.089c-.074-.237-.044-.491-.1-.732a2.888,2.888,0,0,0-.8-1.569,1.164,1.164,0,0,0-1.515-.047c-.061.051-.145.132-.1.19.056.074.1-.046.151-.071a1.388,1.388,0,0,1,1.35.015.578.578,0,0,1,.311.616,5.627,5.627,0,0,1-.079.8c-.018.075-.007.157-.062.223-.283.343-.689.3-1.062.311-.295.012-.457-.205-.566-.461a2.446,2.446,0,0,1-.216-.633c-.007-.054-.014-.13-.086-.12s-.042.09-.045.139a10.453,10.453,0,0,0,.158,2.084c.172,1.146.524,2.255.7,3.4a21.284,21.284,0,0,0,.476,2.546c.022.081.037.177-.062.2s-.107-.089-.118-.163a5.157,5.157,0,0,0-.3-1.238,12.991,12.991,0,0,1-.3-1.806c-.151-.547-.209-1.169-.389-1.716a6.633,6.633,0,0,1-.134-.961,9.337,9.337,0,0,1-.236-2.208,1.518,1.518,0,0,1,.834-1.467,1.219,1.219,0,0,1,1.048.011.331.331,0,0,0,.46-.1,7.6,7.6,0,0,0,1.012-1.465c.045-.087.142-.157.044-.268-.031-.035-.038-.058.034-.083a2.634,2.634,0,0,0,1.376-1.5,1.893,1.893,0,0,0,.141-1.024h0c-.105,0-.185-.128-.413-.129a4.84,4.84,0,0,0-.6.123.34.34,0,0,0-.3.113c-.461.524-.926,1.046-1.409,1.55a11.807,11.807,0,0,1-1.434,1.385,3.737,3.737,0,0,0-1.291,2.1,14.61,14.61,0,0,1-1,2.929,7.627,7.627,0,0,0-.678,1.426v1.29a3.972,3.972,0,0,0,.663,1.089,37.129,37.129,0,0,1,2.294,3.825,3.814,3.814,0,0,1,.539,1.636h5.023A5.016,5.016,0,0,0,753.461,412.371Z" transform="translate(-744.916 -395.519)" fill="#2f68a4"/>
  <path id="Path_217" data-name="Path 217" d="M765.825,397.511a2.635,2.635,0,0,1-1.376,1.5c-.072.025-.065.048-.034.083.1.111,0,.181-.044.268a7.6,7.6,0,0,1-1.012,1.465.331.331,0,0,1-.46.1,1.219,1.219,0,0,0-1.048-.011,1.519,1.519,0,0,0-.834,1.467,9.34,9.34,0,0,0,.236,2.208,6.633,6.633,0,0,0,.134.962c.18.547.238,1.169.389,1.716a13,13,0,0,0,.3,1.806,5.157,5.157,0,0,1,.3,1.238c.011.074.007.185.118.163s.084-.115.062-.2a21.273,21.273,0,0,1-.476-2.546c-.171-1.143-.524-2.252-.7-3.4a10.452,10.452,0,0,1-.157-2.084c0-.049-.029-.128.045-.139s.079.066.086.12a2.45,2.45,0,0,0,.216.633c.109.255.271.473.566.461.373-.015.779.032,1.062-.311.055-.066.044-.148.062-.223a5.645,5.645,0,0,0,.079-.8.578.578,0,0,0-.311-.616,1.388,1.388,0,0,0-1.35-.015c-.053.026-.095.145-.151.071-.044-.057.04-.139.1-.19a1.164,1.164,0,0,1,1.515.047,2.888,2.888,0,0,1,.8,1.569c.056.241.025.5.1.732a.789.789,0,0,0,.033.089c-.034-.186.143-.271.2-.414a.24.24,0,0,1-.036-.068,1.473,1.473,0,0,1-.167-1.011,4.66,4.66,0,0,1,1.146-1.79,5.157,5.157,0,0,1,1.154-1.16c.1-.069.17-.247.287-.2.142.06.036.243.071.367h0c.137-.242.036-.5.059-.753a7.6,7.6,0,0,0-1.5,1.347,6.776,6.776,0,0,0-1.317,1.907c-.011.036-.054.062-.083.092a.5.5,0,0,1-.079-.1,1.138,1.138,0,0,1,.155-.963,1.394,1.394,0,0,1,.352-.452,19.741,19.741,0,0,1,2.2-2.078,1.749,1.749,0,0,0,.488-.513c.065-.1.146-.173.193.018h0c.147-.16-.068-.317,0-.477-.184.2-.369.391-.551.589a4.563,4.563,0,0,1-1,.8,3.223,3.223,0,0,0-.649.723c-.421.476-1.013.805-1.255,1.436a1.063,1.063,0,0,1-.1.213c-.041.061,0,.183-.1.183-.051,0-.105-.075-.151-.123-.091-.095-.015-.159.045-.229a5.658,5.658,0,0,0,.975-1.33c.286-.644.908-.988,1.277-1.563a2.768,2.768,0,0,0,.5-1.645h-.215A1.893,1.893,0,0,1,765.825,397.511Zm-2.643,4.976c-.073.487-.313.675-.9.713-.323.021-.567-.2-.71-.657-.04-.128-.061-.262-.088-.394a.6.6,0,0,1,.505-.769,2.121,2.121,0,0,1,.673.012c.437.08.524.231.518.79A2.093,2.093,0,0,1,763.182,402.487Z" transform="translate(-758.845 -396.348)" fill="#79c9e7"/>
  <path id="Path_218" data-name="Path 218" d="M779.407,398.8a5.659,5.659,0,0,1-.975,1.33c-.06.07-.136.134-.045.229.046.048.1.123.151.123.1,0,.064-.122.1-.183a1.059,1.059,0,0,0,.1-.213c.242-.631.835-.96,1.255-1.436a3.225,3.225,0,0,1,.649-.723,4.56,4.56,0,0,0,1-.8c.182-.2.367-.393.551-.589.052-.111.108-.221.157-.333.184-.423.03-.751-.422-.751-.258,0-.488.137-.746.139h0a2.767,2.767,0,0,1-.5,1.644C780.316,397.81,779.693,398.154,779.407,398.8Z" transform="translate(-773.845 -395.451)" fill="#2f68a4"/>
  <path id="Path_219" data-name="Path 219" d="M786.11,415.366c-.117-.049-.189.129-.287.2a5.158,5.158,0,0,0-1.154,1.16,4.66,4.66,0,0,0-1.146,1.79,1.473,1.473,0,0,0,.167,1.011c.012.023.023.046.036.068a9.645,9.645,0,0,1,1.871-2.786,1.8,1.8,0,0,0,.583-1.074h0C786.145,415.609,786.252,415.426,786.11,415.366Z" transform="translate(-778.302 -412.678)" fill="#2f68a4"/>
  <path id="Path_220" data-name="Path 220" d="M784.584,406.256a1.748,1.748,0,0,1-.488.513,19.749,19.749,0,0,0-2.2,2.078,1.4,1.4,0,0,0-.352.452,1.139,1.139,0,0,0-.155.963.5.5,0,0,0,.079.1c.028-.03.072-.056.083-.092a6.773,6.773,0,0,1,1.317-1.907,7.6,7.6,0,0,1,1.5-1.347,1.834,1.834,0,0,0,.414-.742h0C784.73,406.083,784.649,406.155,784.584,406.256Z" transform="translate(-776.424 -404.714)" fill="#2f68a4"/>
  <path id="Path_221" data-name="Path 221" d="M765.614,432.714a2.121,2.121,0,0,0-.673-.012.6.6,0,0,0-.505.769c.028.132.048.266.088.394.143.456.387.678.71.657.583-.038.823-.226.9-.713a2.093,2.093,0,0,0,0-.3C766.138,432.945,766.051,432.794,765.614,432.714Z" transform="translate(-761.792 -427.669)" fill="#2f68a4"/>
</svg>
