<svg id="Group_941" data-name="Group 941" xmlns="http://www.w3.org/2000/svg" width="30" height="32.18" viewBox="0 0 30 32.18">
  <path id="Path_251" data-name="Path 251" d="M92.272,128.208a25.767,25.767,0,0,1,1.092-3.76,14.844,14.844,0,0,1,8.225-7.851c.951-.392,1.7-.154,2.037.6.334.734-.03,1.357-1.03,1.762-8.13,3.3-10.29,13.065-4.121,19.1a12.035,12.035,0,0,0,11.86,3.145,11.443,11.443,0,0,0,8.741-8.046c1.818-5.888-1.211-11.823-7.13-14.207-.989-.4-1.356-1.035-1.016-1.767.35-.753,1.068-.96,2.044-.588a14.2,14.2,0,0,1,9.156,15.152,14.563,14.563,0,0,1-12.035,12.174c-8.248,1.617-16.619-4.105-17.668-12.073a1.664,1.664,0,0,0-.155-.385Z" transform="translate(-92.272 -112.018)" fill="#a4d166"/>
  <path id="Path_252" data-name="Path 252" d="M171.055,90.935a1.816,1.816,0,0,1,.868,1.722c-.032,3.827-.014,7.654-.015,11.481,0,.143.008.286,0,.428a1.279,1.279,0,0,1-1.321,1.278,1.241,1.241,0,0,1-1.229-1.279c-.018-4.113-.007-8.225-.009-12.338a1.584,1.584,0,0,1,.853-1.293Z" transform="translate(-155.336 -90.935)" fill="#a4d166"/>
</svg>
