<svg xmlns="http://www.w3.org/2000/svg" width="8.835" height="13" viewBox="0 0 8.835 13">
  <g id="Group_944" data-name="Group 944" transform="translate(-52.806 -371.342)">
    <path id="Path_347" data-name="Path 347" d="M57.48,371.342c.15.02.3.034.451.061a4.324,4.324,0,0,1,3.351,2.6,3.849,3.849,0,0,1,.022,3.2,12.883,12.883,0,0,1-.9,1.774q-1.627,2.62-3.258,5.238c-.024.039-.051.077-.082.124-.028-.044-.051-.078-.071-.114-.975-1.654-1.964-3.3-2.921-4.966a10.6,10.6,0,0,1-1.2-2.965,3.451,3.451,0,0,1,.085-1.682,4.317,4.317,0,0,1,2.3-2.808,4.157,4.157,0,0,1,1.641-.447.431.431,0,0,0,.073-.018Zm-2.8,4.271a2.529,2.529,0,1,0,2.533-2.521A2.53,2.53,0,0,0,54.679,375.613Z" transform="translate(0 0)" fill="#a6d26a"/>
  </g>
</svg>
