<svg xmlns="http://www.w3.org/2000/svg" width="14.421" height="9.164" viewBox="0 0 14.421 9.164">
  <g id="Group_522" data-name="Group 522" transform="translate(-164.982 -7.501)">
    <path id="Path_369" data-name="Path 369" d="M164.982,8.9c.048-.016.035-.064.044-.1A1.661,1.661,0,0,1,166.7,7.5h9.815a1.658,1.658,0,0,1,1.608,1.157,1.551,1.551,0,0,1,.081.562c0,.084.016.113.106.116a1.066,1.066,0,0,1,1.1,1.162v3.163a1.058,1.058,0,0,1-1.1,1.166c-.117,0-.1.067-.1.138a1.67,1.67,0,0,1-1.233,1.645,1.688,1.688,0,0,1-.46.054h-9.829a1.655,1.655,0,0,1-1.661-1.311c-.009-.033.007-.08-.038-.1Zm6.609,6.85h4.916a.747.747,0,0,0,.793-.7.767.767,0,0,0,0-.1c0-.166,0-.334,0-.5a.469.469,0,0,1,.524-.527c.16,0,.319,0,.479,0s.2-.05.2-.2q0-1.632,0-3.264c0-.152-.052-.2-.206-.2s-.338,0-.507,0a.453.453,0,0,1-.486-.421.464.464,0,0,1,0-.068c0-.166,0-.334,0-.5a.764.764,0,0,0-.832-.841h-9.747a.769.769,0,0,0-.838.852c0,1.87.009,3.741-.006,5.611a.813.813,0,0,0,.854.872c1.62-.016,3.239-.006,4.859-.006" transform="translate(0 0)" fill="#a4d166"/>
    <path id="Path_370" data-name="Path 370" d="M174.058,18.5c0-.763,0-1.525,0-2.288a.449.449,0,0,1,.862-.194.51.51,0,0,1,.04.208q0,2.267,0,4.533a.451.451,0,1,1-.9.041q0-.02,0-.041,0-1.13,0-2.259" transform="translate(-7.05 -6.403)" fill="#a4d166"/>
    <path id="Path_370-2" data-name="Path 370" d="M180.474,18.5c0-.763,0-1.525,0-2.288a.449.449,0,0,1,.862-.194.506.506,0,0,1,.04.208q0,2.267,0,4.533a.451.451,0,1,1-.9.041q0-.02,0-.041,0-1.13,0-2.259" transform="translate(-12.034 -6.403)" fill="#a4d166"/>
    <path id="Path_370-3" data-name="Path 370" d="M186.841,18.5c0-.763,0-1.525,0-2.288a.449.449,0,0,1,.861-.194.5.5,0,0,1,.04.208q0,2.267,0,4.533a.451.451,0,1,1-.9.041q0-.02,0-.041,0-1.13,0-2.259" transform="translate(-16.98 -6.403)" fill="#a4d166"/>
    <path id="Path_370-4" data-name="Path 370" d="M193.257,18.5c0-.763,0-1.525,0-2.288a.449.449,0,0,1,.861-.194.5.5,0,0,1,.04.208q0,2.267,0,4.533a.451.451,0,1,1-.9.041q0-.02,0-.041,0-1.13,0-2.259" transform="translate(-21.964 -6.403)" fill="#a4d166"/>
    <path id="Path_370-5" data-name="Path 370" d="M199.854,18.5c0-.763,0-1.525,0-2.288a.449.449,0,0,1,.861-.194.5.5,0,0,1,.04.208q0,2.267,0,4.533a.451.451,0,1,1-.9.041q0-.02,0-.041,0-1.13,0-2.259" transform="translate(-27.088 -6.403)" fill="#a4d166"/>
    <path id="Path_370-6" data-name="Path 370" d="M206.27,18.5c0-.763,0-1.525,0-2.288a.449.449,0,0,1,.861-.194.5.5,0,0,1,.04.208q0,2.267,0,4.533a.451.451,0,1,1-.9.041q0-.02,0-.041,0-1.13,0-2.259" transform="translate(-32.072 -6.403)" fill="#a4d166"/>
    <path id="Path_370-7" data-name="Path 370" d="M212.636,18.5c0-.763,0-1.525,0-2.288a.449.449,0,0,1,.862-.194.51.51,0,0,1,.04.208q0,2.267,0,4.533a.451.451,0,1,1-.9.041q0-.02,0-.041,0-1.13,0-2.259" transform="translate(-37.018 -6.403)" fill="#a4d166"/>
  </g>
</svg>
