<svg id="Group_939" data-name="Group 939" xmlns="http://www.w3.org/2000/svg" width="31.328" height="25.778" viewBox="0 0 31.328 25.778">
  <path id="Path_241" data-name="Path 241" d="M302.361,81.032A20.772,20.772,0,0,1,318.7,73.927a20.621,20.621,0,0,1,13.218,5.26c.427.379.854.76,1.251,1.169a1.294,1.294,0,0,1,.159,1.933c-.558.551-1.244.5-1.921-.2a17.438,17.438,0,0,0-7.05-4.6,18.24,18.24,0,0,0-17.9,2.964,19.288,19.288,0,0,0-1.671,1.52c-.969.945-1.573.926-2.423-.113Z" transform="translate(-302.361 -73.91)" fill="#a4d166"/>
  <path id="Path_242" data-name="Path 242" d="M402.394,234.939c-.072-.268-.342-.279-.527-.393a2.007,2.007,0,0,1,1.205-3.718,2.058,2.058,0,0,1,1.788,1.557,1.988,1.988,0,0,1-1.117,2.266c-.182.084-.405.09-.524.287Z" transform="translate(-387.286 -209.161)" fill="#a4d166"/>
  <path id="Path_243" data-name="Path 243" d="M346.082,125.334a15.072,15.072,0,0,1,10.644,4.474,1.207,1.207,0,0,1,.158,1.864c-.535.54-1.211.493-1.873-.138a12.617,12.617,0,0,0-10.166-3.7,12.392,12.392,0,0,0-6.9,2.912c-.353.29-.684.605-1.028.906a1.152,1.152,0,0,1-1.709.006,1.216,1.216,0,0,1,.044-1.775,15.164,15.164,0,0,1,4.275-3.052A14.442,14.442,0,0,1,346.082,125.334Z" transform="translate(-330.36 -118.233)" fill="#a4d166"/>
  <path id="Path_244" data-name="Path 244" d="M375.6,176.963a8.8,8.8,0,0,1,6,2.477,1.223,1.223,0,0,1,.132,1.723,1.2,1.2,0,0,1-1.721.106,7.355,7.355,0,0,0-2.883-1.653,5.92,5.92,0,0,0-5.481,1.372c-.088.072-.165.159-.253.23a1.213,1.213,0,0,1-1.773-.051,1.141,1.141,0,0,1,.136-1.745A8.637,8.637,0,0,1,375.6,176.963Z" transform="translate(-360.038 -162.737)" fill="#a4d166"/>
</svg>
