<svg xmlns="http://www.w3.org/2000/svg" width="10.341" height="9.092" viewBox="0 0 10.341 9.092">
  <path id="Path_230" data-name="Path 230" d="M798.171,433.274a2.729,2.729,0,0,0-3.519,1.528v-.064a2.729,2.729,0,0,0-3.519-1.528c-2.454.959-1.446,3.657-1.446,3.657a3.107,3.107,0,0,0,.18.384,8.647,8.647,0,0,0,2.127,2.477c1.836,1.528,2.658,2.292,2.658,2.292v.064s.822-.764,2.658-2.292a8.53,8.53,0,0,0,2.161-2.541,2.889,2.889,0,0,0,.147-.32S800.625,434.233,798.171,433.274Z" transform="translate(-789.481 -432.991)" fill="#a3314f"/>
</svg>
