<svg xmlns="http://www.w3.org/2000/svg" width="15.517" height="18.899" viewBox="0 0 15.517 18.899">
  <path id="Path_224" data-name="Path 224" d="M815.483,556.909a16.146,16.146,0,0,1-2.245,2.006,8.567,8.567,0,0,1-2.245,1.137,8.423,8.423,0,0,1-2.695.411,7.365,7.365,0,0,1-5.943-2.36q-2.007-2.36-2.006-6.965a11.713,11.713,0,0,1,1.022-5.026,7.73,7.73,0,0,1,2.915-3.364,8.822,8.822,0,0,1,7.644-.573,5.535,5.535,0,0,1,2.169,1.672,7.788,7.788,0,0,1,1.261,2.675,17.644,17.644,0,0,1,.506,4.214H803.826v.344a12.262,12.262,0,0,0,.507,3.794,4.786,4.786,0,0,0,1.662,2.408,4.878,4.878,0,0,0,3.01.869,6.6,6.6,0,0,0,2.819-.583,8.364,8.364,0,0,0,2.494-1.9Zm-3.21-7.758a14.559,14.559,0,0,0-.516-3.373,4.223,4.223,0,0,0-1.2-2.006,3.09,3.09,0,0,0-2.1-.7,3.725,3.725,0,0,0-3.143,1.576,8.48,8.48,0,0,0-1.386,4.5Z" transform="translate(-800.348 -541.564)" fill="#2f68a4"/>
</svg>
