<svg xmlns="http://www.w3.org/2000/svg" width="16.511" height="18.899" viewBox="0 0 16.511 18.899">
  <path id="Path_225" data-name="Path 225" d="M882.714,557.425l-.287-.076a11.676,11.676,0,0,1-3.124,2.407,7.042,7.042,0,0,1-3.105.707,5.576,5.576,0,0,1-2.561-.564,4.016,4.016,0,0,1-1.7-1.586,4.619,4.619,0,0,1-.593-2.36,4.721,4.721,0,0,1,2.761-4.309q2.762-1.519,8.284-1.768v-1.242a10.252,10.252,0,0,0-.382-3.134,3.078,3.078,0,0,0-1.2-1.682,3.98,3.98,0,0,0-2.2-.535,3.541,3.541,0,0,0-2.4.783,4.8,4.8,0,0,0-1.367,2.35h-2.5v-2.484a27.3,27.3,0,0,1,3.058-1.4,17.682,17.682,0,0,1,2.446-.707,12.01,12.01,0,0,1,2.484-.258,6.556,6.556,0,0,1,3.039.6,3.819,3.819,0,0,1,1.72,1.844,9.352,9.352,0,0,1,.573,3.745v6.651q0,1.414.019,2a6.849,6.849,0,0,0,.115,1.08,2.26,2.26,0,0,0,.286.793,1.569,1.569,0,0,0,.564.506,5.71,5.71,0,0,0,1.214.44v.937h-5.236Zm-.325-5.981a13.445,13.445,0,0,0-5.809,1.032,3.2,3.2,0,0,0-1.93,3,2.963,2.963,0,0,0,.439,1.72,2.261,2.261,0,0,0,1.108.87,4.723,4.723,0,0,0,1.586.239,4.528,4.528,0,0,0,2.36-.631,4.7,4.7,0,0,0,1.653-1.605,3.7,3.7,0,0,0,.592-1.93Z" transform="translate(-871.344 -541.564)" fill="#2f68a4"/>
</svg>
