<svg xmlns="http://www.w3.org/2000/svg" width="13.95" height="18.594" viewBox="0 0 13.95 18.594">
  <path id="Path_223" data-name="Path 223" d="M776.314,545.061l.268.058a14.506,14.506,0,0,1,1.949-2.016,7.038,7.038,0,0,1,1.94-1.137,6.525,6.525,0,0,1,2.36-.4,16.023,16.023,0,0,1,2.007.114v4.4h-2.16a4.475,4.475,0,0,0-.975-1.5,2.024,2.024,0,0,0-1.414-.469,2.655,2.655,0,0,0-1.367.4,5.089,5.089,0,0,0-1.309,1.165,4.929,4.929,0,0,0-.87,1.433,4.723,4.723,0,0,0-.239,1.586v6.688a9.129,9.129,0,0,0,.21,2.4,1.692,1.692,0,0,0,.7.965,4.2,4.2,0,0,0,1.462.478v.937h-7.7v-.937a6.388,6.388,0,0,0,1.041-.4,1.686,1.686,0,0,0,.545-.478,2.26,2.26,0,0,0,.344-.937,12.152,12.152,0,0,0,.115-1.968v-8.332q0-1.223-.039-1.968a2.989,2.989,0,0,0-.267-1.195,1.455,1.455,0,0,0-.7-.669,5.522,5.522,0,0,0-1.328-.373v-.994l4.471-.191h1.166Z" transform="translate(-770.887 -541.564)" fill="#2f68a4"/>
</svg>
