<svg xmlns="http://www.w3.org/2000/svg" width="12.689" height="27.442" viewBox="0 0 12.689 27.442">
  <path id="Path_226" data-name="Path 226" d="M916.631,536.389h-4.567V547.95a11.075,11.075,0,0,0,.124,1.93,2.527,2.527,0,0,0,.363.984,1.729,1.729,0,0,0,.631.535,5.613,5.613,0,0,0,1.252.392v.937h-7.816v-.937a5.454,5.454,0,0,0,1.2-.44,1.576,1.576,0,0,0,.564-.535,2.582,2.582,0,0,0,.3-.937,13.873,13.873,0,0,0,.1-1.93V536.389h-2.312v-.975q.726-.115.965-.182a1.83,1.83,0,0,0,.459-.2,1.219,1.219,0,0,0,.382-.382,2.519,2.519,0,0,0,.286-.736,8.934,8.934,0,0,0,.2-1.366,10.467,10.467,0,0,1,.754-3.383,6.022,6.022,0,0,1,1.7-2.217,6.741,6.741,0,0,1,2.389-1.29,10.682,10.682,0,0,1,2.991-.373,13.3,13.3,0,0,1,2.561.21v3.459h-1.892a3.866,3.866,0,0,0-.85-1.6,1.891,1.891,0,0,0-1.367-.469,2.866,2.866,0,0,0-1.061.172,2.356,2.356,0,0,0-.793.535,3.018,3.018,0,0,0-.621.975,6.072,6.072,0,0,0-.382,1.519,18.03,18.03,0,0,0-.124,2.36v2.006h4.567Z" transform="translate(-906.465 -525.286)" fill="#2f68a4"/>
</svg>
