<svg xmlns="http://www.w3.org/2000/svg" width="18.322" height="23.224" viewBox="0 0 18.322 23.224">
  <path id="Path_229" data-name="Path 229" d="M713.65,533.873l.125,5.761H712.8q-2.07-5.182-7.308-5.181a7.039,7.039,0,0,0-4.5,1.283,3.524,3.524,0,0,0-1.6,2.657,2.581,2.581,0,0,0,1.336,2.168,12.568,12.568,0,0,0,4.875,1.382,26.131,26.131,0,0,1,5.393,1.192,7.1,7.1,0,0,1,3.126,2.342,5.957,5.957,0,0,1,1.273,3.758,6.727,6.727,0,0,1-2.66,5.43,10.1,10.1,0,0,1-6.594,2.168,12.377,12.377,0,0,1-6.4-1.9l-1.946,1.39h-.724v-6.208h.89a9.531,9.531,0,0,0,3.416,4.4,8.439,8.439,0,0,0,4.8,1.473,8.72,8.72,0,0,0,4.751-1.366,4.007,4.007,0,0,0,2.163-3.451,3.652,3.652,0,0,0-1.5-2.954,10.065,10.065,0,0,0-4.865-1.655,29.714,29.714,0,0,1-5.165-1.059,6.89,6.89,0,0,1-3.085-2.1,4.977,4.977,0,0,1-1.283-3.318,5.888,5.888,0,0,1,2.236-4.494,8.827,8.827,0,0,1,6.066-1.978,11.654,11.654,0,0,1,5.983,1.622,6.313,6.313,0,0,0,1.325-1.357Z" transform="translate(-697.067 -533.608)" fill="#2f68a4"/>
</svg>
