<svg xmlns="http://www.w3.org/2000/svg" width="18.881" height="18.575" viewBox="0 0 18.881 18.575">
  <path id="Path_222" data-name="Path 222" d="M730.773,542.161h5.447v9.727a25.1,25.1,0,0,0,.172,3.4,5.09,5.09,0,0,0,.516,1.758,2.9,2.9,0,0,0,.975.994,3.222,3.222,0,0,0,1.739.4,3.5,3.5,0,0,0,1.395-.286,5.924,5.924,0,0,0,1.49-1,4.817,4.817,0,0,0,1.175-1.424,3.628,3.628,0,0,0,.354-1.643v-7.166q0-1.089-.058-1.643a3.41,3.41,0,0,0-.191-.889,1.928,1.928,0,0,0-.315-.545,1.708,1.708,0,0,0-.516-.382,5.592,5.592,0,0,0-1.08-.363v-.937h5.447v13.052q0,1.472.057,2.121a2.917,2.917,0,0,0,.248,1.032,1.5,1.5,0,0,0,.592.621,5.033,5.033,0,0,0,1.433.449v.994l-4.376.191h-1.166l.115-3.134-.286-.076a12.659,12.659,0,0,1-3.029,2.522,5.906,5.906,0,0,1-2.9.8,5.427,5.427,0,0,1-2.867-.688,4.139,4.139,0,0,1-1.682-2.054,10.6,10.6,0,0,1-.554-3.851v-7.224a12.832,12.832,0,0,0-.124-2.207,1.834,1.834,0,0,0-.478-.956,3.632,3.632,0,0,0-1.538-.659Z" transform="translate(-730.773 -542.161)" fill="#2f68a4"/>
</svg>
